{
  "accessors": [
    {
      "bufferView": 2,
      "componentType": 5126,
      "count": 136,
      "max": [
        2.743925094604492,
        58.92616271972656,
        10.69583511352539
      ],
      "min": [
        2.4611289501190186,
        53.72242736816406,
        10.190887451171875
      ],
      "type": "VEC3"
    },
    {
      "bufferView": 2,
      "byteOffset": 1632,
      "componentType": 5126,
      "count": 136,
      "max": [
        -0.28069689869880676,
        0.9415838718414307,
        0.9596856236457825
      ],
      "min": [
        -0.9954975247383118,
        -0.94157874584198,
        -0.8143298625946045
      ],
      "type": "VEC3"
    },
    {
      "bufferView": 3,
      "componentType": 5126,
      "count": 136,
      "max": [
        0.9597765207290649,
        0.5132313966751099,
        0.9970933794975281,
        1.0
      ],
      "min": [
        -0.8144543766975403,
        -0.18873628973960876,
        -0.9945988059043884,
        1.0
      ],
      "type": "VEC4"
    },
    {
      "bufferView": 1,
      "componentType": 5126,
      "count": 136,
      "max": [
        0.9054110050201416,
        0.9973120093345642
      ],
      "min": [
        0.33578699827194214,
        0.817359983921051
      ],
      "type": "VEC2"
    },
    {
      "bufferView": 0,
      "componentType": 5125,
      "count": 348,
      "type": "SCALAR"
    },
    {
      "bufferView": 2,
      "byteOffset": 3264,
      "componentType": 5126,
      "count": 4214,
      "max": [
        11.551633834838867,
        70.36930084228516,
        12.126473426818848
      ],
      "min": [
        -11.221094131469727,
        42.27928924560547,
        7.406941890716553
      ],
      "type": "VEC3"
    },
    {
      "bufferView": 2,
      "byteOffset": 53832,
      "componentType": 5126,
      "count": 4214,
      "max": [
        1.0,
        1.0,
        0.9999978542327881
      ],
      "min": [
        -1.0,
        -1.0,
        -0.9999997615814209
      ],
      "type": "VEC3"
    },
    {
      "bufferView": 3,
      "byteOffset": 2176,
      "componentType": 5126,
      "count": 4214,
      "max": [
        1.0,
        1.0,
        1.0,
        1.0
      ],
      "min": [
        -0.9959962964057922,
        -1.0,
        -1.0,
        -1.0
      ],
      "type": "VEC4"
    },
    {
      "bufferView": 1,
      "byteOffset": 1088,
      "componentType": 5126,
      "count": 4214,
      "max": [
        0.9431930184364319,
        0.9980080127716064
      ],
      "min": [
        0.001883000019006431,
        0.0019920000340789557
      ],
      "type": "VEC2"
    },
    {
      "bufferView": 0,
      "byteOffset": 1392,
      "componentType": 5125,
      "count": 9210,
      "type": "SCALAR"
    },
    {
      "bufferView": 2,
      "byteOffset": 104400,
      "componentType": 5126,
      "count": 90,
      "max": [
        -4.745312213897705,
        57.06191635131836,
        11.487931251525879
      ],
      "min": [
        -9.314790725708008,
        55.586669921875,
        10.112895011901855
      ],
      "type": "VEC3"
    },
    {
      "bufferView": 2,
      "byteOffset": 105480,
      "componentType": 5126,
      "count": 90,
      "max": [
        0.2890300154685974,
        0.9784056544303894,
        0.9988636374473572
      ],
      "min": [
        -0.662503719329834,
        -0.9784056544303894,
        0.18313893675804138
      ],
      "type": "VEC3"
    },
    {
      "bufferView": 3,
      "byteOffset": 69600,
      "componentType": 5126,
      "count": 90,
      "max": [
        0.12424776703119278,
        1.0,
        0.9830684661865234,
        1.0
      ],
      "min": [
        -0.1242474913597107,
        0.18286296725273132,
        -0.9830684661865234,
        1.0
      ],
      "type": "VEC4"
    },
    {
      "bufferView": 1,
      "byteOffset": 34800,
      "componentType": 5126,
      "count": 90,
      "max": [
        0.46775200963020325,
        0.5196220278739929
      ],
      "min": [
        0.2423419952392578,
        0.4023610055446625
      ],
      "type": "VEC2"
    },
    {
      "bufferView": 0,
      "byteOffset": 38232,
      "componentType": 5125,
      "count": 168,
      "type": "SCALAR"
    },
    {
      "bufferView": 2,
      "byteOffset": 106560,
      "componentType": 5126,
      "count": 84,
      "max": [
        10.759263038635254,
        61.156944274902344,
        12.29770278930664
      ],
      "min": [
        8.935772895812988,
        51.49164581298828,
        11.993674278259277
      ],
      "type": "VEC3"
    },
    {
      "bufferView": 2,
      "byteOffset": 107568,
      "componentType": 5126,
      "count": 84,
      "max": [
        0.9881851077079773,
        0.9990073442459106,
        0.9998695254325867
      ],
      "min": [
        -0.9802722334861755,
        -0.999007523059845,
        0.026569003239274025
      ],
      "type": "VEC3"
    },
    {
      "bufferView": 3,
      "byteOffset": 71040,
      "componentType": 5126,
      "count": 84,
      "max": [
        0.9995987415313721,
        1.0,
        0.004066992551088333,
        1.0
      ],
      "min": [
        0.0,
        -1.0,
        -0.003241560887545347,
        1.0
      ],
      "type": "VEC4"
    },
    {
      "bufferView": 1,
      "byteOffset": 35520,
      "componentType": 5126,
      "count": 84,
      "max": [
        0.7703400254249573,
        0.8548269867897034
      ],
      "min": [
        0.07493499666452408,
        0.693822979927063
      ],
      "type": "VEC2"
    },
    {
      "bufferView": 0,
      "byteOffset": 38904,
      "componentType": 5125,
      "count": 126,
      "type": "SCALAR"
    },
    {
      "bufferView": 2,
      "byteOffset": 108576,
      "componentType": 5126,
      "count": 416,
      "max": [
        3.0137319564819336,
        59.836570739746094,
        11.554080963134766
      ],
      "min": [
        2.2690160274505615,
        52.81201934814453,
        9.312820434570313
      ],
      "type": "VEC3"
    },
    {
      "bufferView": 2,
      "byteOffset": 113568,
      "componentType": 5126,
      "count": 416,
      "max": [
        -0.40571099519729614,
        0.8521254062652588,
        0.9132720232009888
      ],
      "min": [
        -0.9954991340637207,
        -0.8521280288696289,
        -0.8966220021247864
      ],
      "type": "VEC3"
    },
    {
      "bufferView": 3,
      "byteOffset": 72384,
      "componentType": 5126,
      "count": 416,
      "max": [
        0.8522896766662598,
        0.999213457107544,
        0.9963811039924622,
        1.0
      ],
      "min": [
        -0.8522868752479553,
        -0.9992227554321289,
        -0.894233226776123,
        1.0
      ],
      "type": "VEC4"
    },
    {
      "bufferView": 1,
      "byteOffset": 36192,
      "componentType": 5126,
      "count": 416,
      "max": [
        0.8198009729385376,
        0.8873839974403381
      ],
      "min": [
        0.001883000019006431,
        0.6730960011482239
      ],
      "type": "VEC2"
    },
    {
      "bufferView": 0,
      "byteOffset": 39408,
      "componentType": 5125,
      "count": 768,
      "type": "SCALAR"
    },
    {
      "bufferView": 2,
      "byteOffset": 118560,
      "componentType": 5126,
      "count": 444,
      "max": [
        -2.1679699420928955,
        64.1575927734375,
        8.754533767700195
      ],
      "min": [
        -11.825545310974121,
        48.490997314453125,
        7.702415943145752
      ],
      "type": "VEC3"
    },
    {
      "bufferView": 2,
      "byteOffset": 123888,
      "componentType": 5126,
      "count": 444,
      "max": [
        1.0,
        0.9995447397232056,
        0.9988744854927063
      ],
      "min": [
        -1.0,
        -0.9995447397232056,
        -0.9999969005584717
      ],
      "type": "VEC3"
    },
    {
      "bufferView": 3,
      "byteOffset": 79040,
      "componentType": 5126,
      "count": 444,
      "max": [
        1.0,
        1.0,
        1.0,
        1.0
      ],
      "min": [
        -0.8162931203842163,
        -1.0,
        -1.0,
        1.0
      ],
      "type": "VEC4"
    },
    {
      "bufferView": 1,
      "byteOffset": 39520,
      "componentType": 5126,
      "count": 444,
      "max": [
        0.9027519822120667,
        0.992929995059967
      ],
      "min": [
        0.0831110030412674,
        0.45421499013900757
      ],
      "type": "VEC2"
    },
    {
      "bufferView": 0,
      "byteOffset": 42480,
      "componentType": 5125,
      "count": 804,
      "type": "SCALAR"
    },
    {
      "bufferView": 2,
      "byteOffset": 129216,
      "componentType": 5126,
      "count": 704,
      "max": [
        7.374220848083496,
        59.418739318847656,
        11.179287910461426
      ],
      "min": [
        2.2782020568847656,
        53.22984313964844,
        9.446388244628906
      ],
      "type": "VEC3"
    },
    {
      "bufferView": 2,
      "byteOffset": 137664,
      "componentType": 5126,
      "count": 704,
      "max": [
        0.9999514818191528,
        0.996905505657196,
        0.9897423386573792
      ],
      "min": [
        -0.9999514818191528,
        -0.9969059824943542,
        -0.9976597428321838
      ],
      "type": "VEC3"
    },
    {
      "bufferView": 3,
      "byteOffset": 86144,
      "componentType": 5126,
      "count": 704,
      "max": [
        0.9999951720237732,
        0.9999918341636658,
        0.9999126195907593,
        1.0
      ],
      "min": [
        -0.41281992197036743,
        -0.9999879598617554,
        -0.9993183612823486,
        1.0
      ],
      "type": "VEC4"
    },
    {
      "bufferView": 1,
      "byteOffset": 43072,
      "componentType": 5126,
      "count": 704,
      "max": [
        0.9431930184364319,
        0.9980040192604065
      ],
      "min": [
        0.001883000019006431,
        0.668953001499176
      ],
      "type": "VEC2"
    },
    {
      "bufferView": 0,
      "byteOffset": 45696,
      "componentType": 5125,
      "count": 1218,
      "type": "SCALAR"
    }
  ],
  "asset": {
    "extras": {
      "author": "Stgo Design (https://sketchfab.com/stgodesign)",
      "license": "CC-BY-4.0 (http://creativecommons.org/licenses/by/4.0/)",
      "source": "https://sketchfab.com/3d-models/a-10-thunderbolt-ii-warthog-plane-avion-ddffd72c770e41c6a241cf83a92052cb",
      "title": "A-10 Thunderbolt II Warthog (Plane / Avión)"
    },
    "generator": "Sketchfab-15.12.0",
    "version": "2.0"
  },
  "bufferViews": [
    {
      "buffer": 0,
      "byteLength": 50568,
      "name": "floatBufferViews",
      "target": 34963
    },
    {
      "buffer": 0,
      "byteLength": 48704,
      "byteOffset": 50568,
      "byteStride": 8,
      "name": "floatBufferViews",
      "target": 34962
    },
    {
      "buffer": 0,
      "byteLength": 146112,
      "byteOffset": 99272,
      "byteStride": 12,
      "name": "floatBufferViews",
      "target": 34962
    },
    {
      "buffer": 0,
      "byteLength": 97408,
      "byteOffset": 245384,
      "byteStride": 16,
      "name": "floatBufferViews",
      "target": 34962
    }
  ],
  "buffers": [
    {
      "byteLength": 342792,
      "uri": "scene.bin"
    }
  ],
  "extensionsUsed": [
    "KHR_materials_specular",
    "KHR_materials_transmission"
  ],
  "images": [
    {
      "uri": "textures/blinn1SG_baseColor.png"
    },
    {
      "uri": "textures/blinn1SG_metallicRoughness.png"
    },
    {
      "uri": "textures/blinn1SG_normal.png"
    },
    {
      "uri": "textures/blinn1SG_specularf0.png"
    },
    {
      "uri": "textures/detalles_4_aiStandardSurface16SG_baseColor.png"
    },
    {
      "uri": "textures/detalles_4_aiStandardSurface16SG_metallicRoughness.png"
    },
    {
      "uri": "textures/detalles_4_aiStandardSurface16SG_normal.png"
    },
    {
      "uri": "textures/detalles_4_aiStandardSurface16SG_specularf0.png"
    },
    {
      "uri": "textures/detalles_4_aiStandardSurface18SG_baseColor.png"
    },
    {
      "uri": "textures/detalles_4_aiStandardSurface18SG_metallicRoughness.png"
    },
    {
      "uri": "textures/detalles_4_aiStandardSurface18SG_normal.png"
    },
    {
      "uri": "textures/detalles_4_aiStandardSurface18SG_specularf0.png"
    },
    {
      "uri": "textures/lambert3SG_baseColor.png"
    },
    {
      "uri": "textures/lambert3SG_metallicRoughness.png"
    },
    {
      "uri": "textures/lambert3SG_normal.png"
    },
    {
      "uri": "textures/lambert3SG_specularf0.png"
    },
    {
      "uri": "textures/lambert4SG_baseColor.png"
    },
    {
      "uri": "textures/lambert4SG_metallicRoughness.png"
    },
    {
      "uri": "textures/lambert4SG_normal.png"
    },
    {
      "uri": "textures/lambert4SG_specularf0.png"
    },
    {
      "uri": "textures/lambert5SG_baseColor.png"
    },
    {
      "uri": "textures/lambert5SG_metallicRoughness.png"
    },
    {
      "uri": "textures/lambert5SG_normal.png"
    },
    {
      "uri": "textures/lambert5SG_specularf0.png"
    },
    {
      "uri": "textures/lambert6SG_baseColor.png"
    },
    {
      "uri": "textures/lambert6SG_metallicRoughness.png"
    },
    {
      "uri": "textures/lambert6SG_specularf0.png"
    }
  ],
  "materials": [
    {
      "doubleSided": true,
      "extensions": {
        "KHR_materials_specular": {
          "specularColorFactor": [
            1.0,
            1.0,
            1.0
          ],
          "specularFactor": 1.0,
          "specularTexture": {
            "index": 3
          }
        }
      },
      "name": "blinn1SG",
      "normalTexture": {
        "index": 2
      },
      "pbrMetallicRoughness": {
        "baseColorTexture": {
          "index": 0
        },
        "metallicRoughnessTexture": {
          "index": 1
        }
      }
    },
    {
      "doubleSided": true,
      "extensions": {
        "KHR_materials_specular": {
          "specularColorFactor": [
            1.0,
            1.0,
            1.0
          ],
          "specularFactor": 1.0,
          "specularTexture": {
            "index": 7
          }
        }
      },
      "name": "detalles_4_aiStandardSurface16SG",
      "normalTexture": {
        "index": 6
      },
      "pbrMetallicRoughness": {
        "baseColorTexture": {
          "index": 4
        },
        "metallicRoughnessTexture": {
          "index": 5
        }
      }
    },
    {
      "alphaMode": "BLEND",
      "doubleSided": true,
      "extensions": {
        "KHR_materials_specular": {
          "specularColorFactor": [
            1.0,
            1.0,
            1.0
          ],
          "specularFactor": 1.0,
          "specularTexture": {
            "index": 11
          }
        },
        "KHR_materials_transmission": {
          "transmissionFactor": 0.20304519023296075
        }
      },
      "name": "detalles_4_aiStandardSurface18SG",
      "normalTexture": {
        "index": 10
      },
      "pbrMetallicRoughness": {
        "baseColorFactor": [
          1.0,
          1.0,
          1.0,
          0.7969548097670393
        ],
        "baseColorTexture": {
          "index": 8
        },
        "metallicRoughnessTexture": {
          "index": 9
        }
      }
    },
    {
      "doubleSided": true,
      "extensions": {
        "KHR_materials_specular": {
          "specularColorFactor": [
            1.0,
            1.0,
            1.0
          ],
          "specularFactor": 1.0,
          "specularTexture": {
            "index": 15
          }
        }
      },
      "name": "lambert3SG",
      "normalTexture": {
        "index": 14
      },
      "pbrMetallicRoughness": {
        "baseColorTexture": {
          "index": 12
        },
        "metallicRoughnessTexture": {
          "index": 13
        }
      }
    },
    {
      "doubleSided": true,
      "extensions": {
        "KHR_materials_specular": {
          "specularColorFactor": [
            1.0,
            1.0,
            1.0
          ],
          "specularFactor": 1.0,
          "specularTexture": {
            "index": 19
          }
        }
      },
      "name": "lambert4SG",
      "normalTexture": {
        "index": 18
      },
      "pbrMetallicRoughness": {
        "baseColorTexture": {
          "index": 16
        },
        "metallicRoughnessTexture": {
          "index": 17
        }
      }
    },
    {
      "doubleSided": true,
      "extensions": {
        "KHR_materials_specular": {
          "specularColorFactor": [
            1.0,
            1.0,
            1.0
          ],
          "specularFactor": 1.0,
          "specularTexture": {
            "index": 23
          }
        }
      },
      "name": "lambert5SG",
      "normalTexture": {
        "index": 22
      },
      "pbrMetallicRoughness": {
        "baseColorTexture": {
          "index": 20
        },
        "metallicRoughnessTexture": {
          "index": 21
        }
      }
    },
    {
      "doubleSided": true,
      "extensions": {
        "KHR_materials_specular": {
          "specularColorFactor": [
            1.0,
            1.0,
            1.0
          ],
          "specularFactor": 1.0,
          "specularTexture": {
            "index": 26
          }
        }
      },
      "name": "lambert6SG",
      "normalTexture": {
        "index": 22
      },
      "pbrMetallicRoughness": {
        "baseColorTexture": {
          "index": 24
        },
        "metallicRoughnessTexture": {
          "index": 25
        }
      }
    }
  ],
  "meshes": [
    {
      "name": "Object_0",
      "primitives": [
        {
          "attributes": {
            "NORMAL": 1,
            "POSITION": 0,
            "TANGENT": 2,
            "TEXCOORD_0": 3
          },
          "indices": 4,
          "material": 0,
          "mode": 4
        }
      ]
    },
    {
      "name": "Object_1",
      "primitives": [
        {
          "attributes": {
            "NORMAL": 6,
            "POSITION": 5,
            "TANGENT": 7,
            "TEXCOORD_0": 8
          },
          "indices": 9,
          "material": 1,
          "mode": 4
        }
      ]
    },
    {
      "name": "Object_2",
      "primitives": [
        {
          "attributes": {
            "NORMAL": 11,
            "POSITION": 10,
            "TANGENT": 12,
            "TEXCOORD_0": 13
          },
          "indices": 14,
          "material": 2,
          "mode": 4
        }
      ]
    },
    {
      "name": "Object_3",
      "primitives": [
        {
          "attributes": {
            "NORMAL": 16,
            "POSITION": 15,
            "TANGENT": 17,
            "TEXCOORD_0": 18
          },
          "indices": 19,
          "material": 3,
          "mode": 4
        }
      ]
    },
    {
      "name": "Object_4",
      "primitives": [
        {
          "attributes": {
            "NORMAL": 21,
            "POSITION": 20,
            "TANGENT": 22,
            "TEXCOORD_0": 23
          },
          "indices": 24,
          "material": 4,
          "mode": 4
        }
      ]
    },
    {
      "name": "Object_5",
      "primitives": [
        {
          "attributes": {
            "NORMAL": 26,
            "POSITION": 25,
            "TANGENT": 27,
            "TEXCOORD_0": 28
          },
          "indices": 29,
          "material": 5,
          "mode": 4
        }
      ]
    },
    {
      "name": "Object_6",
      "primitives": [
        {
          "attributes": {
            "NORMAL": 31,
            "POSITION": 30,
            "TANGENT": 32,
            "TEXCOORD_0": 33
          },
          "indices": 34,
          "material": 6,
          "mode": 4
        }
      ]
    }
  ],
  "nodes": [
    {
      "children": [
        1
      ],
      "matrix": [
        1.0,
        0.0,
        0.0,
        0.0,
        0.0,
        2.220446049250313e-16,
        -1.0,
        0.0,
        0.0,
        1.0,
        2.220446049250313e-16,
        0.0,
        0.0,
        0.0,
        0.0,
        1.0
      ],
      "name": "Sketchfab_model"
    },
    {
      "children": [
        2,
        3,
        4,
        5,
        6,
        7,
        8
      ],
      "name": "Avion.obj.cleaner.materialmerger.gles"
    },
    {
      "mesh": 0,
      "name": "Object_2"
    },
    {
      "mesh": 1,
      "name": "Object_3"
    },
    {
      "mesh": 2,
      "name": "Object_4"
    },
    {
      "mesh": 3,
      "name": "Object_5"
    },
    {
      "mesh": 4,
      "name": "Object_6"
    },
    {
      "mesh": 5,
      "name": "Object_7"
    },
    {
      "mesh": 6,
      "name": "Object_8"
    }
  ],
  "samplers": [
    {
      "magFilter": 9729,
      "minFilter": 9987,
      "wrapS": 10497,
      "wrapT": 10497
    }
  ],
  "scene": 0,
  "scenes": [
    {
      "name": "Sketchfab_Scene",
      "nodes": [
        0
      ]
    }
  ],
  "textures": [
    {
      "sampler": 0,
      "source": 0
    },
    {
      "sampler": 0,
      "source": 1
    },
    {
      "sampler": 0,
      "source": 2
    },
    {
      "sampler": 0,
      "source": 3
    },
    {
      "sampler": 0,
      "source": 4
    },
    {
      "sampler": 0,
      "source": 5
    },
    {
      "sampler": 0,
      "source": 6
    },
    {
      "sampler": 0,
      "source": 7
    },
    {
      "sampler": 0,
      "source": 8
    },
    {
      "sampler": 0,
      "source": 9
    },
    {
      "sampler": 0,
      "source": 10
    },
    {
      "sampler": 0,
      "source": 11
    },
    {
      "sampler": 0,
      "source": 12
    },
    {
      "sampler": 0,
      "source": 13
    },
    {
      "sampler": 0,
      "source": 14
    },
    {
      "sampler": 0,
      "source": 15
    },
    {
      "sampler": 0,
      "source": 16
    },
    {
      "sampler": 0,
      "source": 17
    },
    {
      "sampler": 0,
      "source": 18
    },
    {
      "sampler": 0,
      "source": 19
    },
    {
      "sampler": 0,
      "source": 20
    },
    {
      "sampler": 0,
      "source": 21
    },
    {
      "sampler": 0,
      "source": 22
    },
    {
      "sampler": 0,
      "source": 23
    },
    {
      "sampler": 0,
      "source": 24
    },
    {
      "sampler": 0,
      "source": 25
    },
    {
      "sampler": 0,
      "source": 26
    }
  ]
}
